<svg id="Layer_1" data-name="Layer 1" xmlns="http://www.w3.org/2000/svg" viewBox="0 0 1920 606.32"><defs><clipPath id="clip-path"><path class="cls-1" d="M719.12-23.68H1920v630H719.12z"/></clipPath><clipPath id="clip-path-2"><path class="cls-1" d="M719.37-23.42h1200.38v629.47H719.37z"/></clipPath><style>.cls-1{fill:none}.cls-5{fill:#5f6070}.cls-6{fill:#37384c}.cls-7{fill:#6f707e}.cls-8{fill:#7f808d}.cls-9{fill:#4f5061}.cls-10{fill:#bfbfc6}.cls-11{fill:#8f909b}.cls-12{fill:#9f9fa9}.cls-14{fill:#afafb7}.cls-15{fill:#cfcfd4}.cls-17{fill:#dfdfe2}</style></defs><g style="opacity:.12"><g style="clip-path:url(#clip-path)" id="Vector_Smart_Object" data-name="Vector Smart Object"><g style="clip-path:url(#clip-path-2)"><path class="cls-5" d="M993.81 606.06v-.7h1.05l194.14-46s.59.22 1.7.6a2.58 2.58 0 0 0 .39.14l.53.19 1.35.48.67.24.35.12.84.29a4.24 4.24 0 0 0 .5.18l.36.13a5.25 5.25 0 0 1 .63.22l.62.22c.21.07.43.14.65.23l1.32.46c.23.07.47.16.71.25l1.42.51c30.58 10.87 108.86 38.67 117.65 41.66v.7Z"/><path class="cls-6" d="m1189 559.39 99-152.06.2 1.29c0 .29.11.65.17 1l31 195.64c-11.44-3.93-88-31-118.19-41.61l-1.42-.51c-.24-.09-.48-.18-.71-.25l-1.32-.46c-.22-.09-.44-.16-.65-.23l-.62-.22a5.25 5.25 0 0 0-.63-.22l-.36-.13a4.24 4.24 0 0 1-.5-.18l-.84-.29-.35-.12-.67-.24-1.35-.48-.53-.19a3.54 3.54 0 0 1-.39-.14l-1.7-.59M1190.7 560a3.54 3.54 0 0 0 .39.14 2.58 2.58 0 0 1-.39-.14M1201.17 563.7c30.15 10.64 106.75 37.68 118.19 41.61v.05h-.55c-8.79-3-87.07-30.79-117.65-41.66"/><path class="cls-7" d="M1288 407.33c.68.58 32 23.41 32 23.41v.09l90.17 31.88-23.45 142.9-.09.07-.09-.19.09-.07-94.55-189.8-.69-1.38-.93-1.87-1-2.1-.64-1.3-.8-1.61Z"/><path class="cls-8" d="m1288.21 408.63-.2-1.29.8 1.61.64 1.3 1 2.1.93 1.87.69 1.38 94.46 189.87-.09.06H1320c.25 0-7.87-50.31-16-100.24-5.38-33.12-10.78-66.06-13.73-84.05-.1-.61-.19-1.2-.29-1.78l-.11-.67v-.18l-.26-1.61-.39-2.36c-.08-.52-.16-1-.23-1.45l-.08-.52-.16-1-.08-.45a.17.17 0 0 0 0-.07l-.18-1.13c0-.13 0-.27-.07-.4-.06-.38-.12-.74-.17-1"/><path class="cls-9" d="M1288.02 407.31v-.01l211.16-56.79-88.97 112.18-122.19-55.38z"/><path class="cls-7" d="m1288 407.32 122.19 55.37-90.19-31.88v-.09s-31.3-22.83-32-23.4"/><path class="cls-8" d="m1290.27 421.24-.29-1.78c.1.58.19 1.17.29 1.78M1320 605.53l-29.73-184.29c3 18 8.35 50.94 13.73 84.05 8.13 49.93 16.25 100.24 16 100.24"/><path class="cls-7" d="m1386.58 605.47-94.46-189.87 94.55 189.8-.09.07z"/><path class="cls-5" d="M1386.72 606.06v-.26H1763.57l.04-.04.02.04 68.91-83.35 87.21 83.12v.49h-533.03z"/><path class="cls-6" d="m1386.72 605.8.04-.21 157.4-125.08-61.19 125.29h-96.25z"/><path class="cls-10" d="m1386.76 605.59 23.45-142.9 133.95 17.82-157.4 125.08z"/><path class="cls-11" d="m1410.21 462.69 88.97-112.18 44.98 130-133.95-17.82z"/><path class="cls-5" d="m1482.97 605.8 61.19-125.29 75.85 125.1-.13.19h-136.91z"/><path class="cls-12" d="m1544.16 480.51-44.98-130 148.93 80.21-103.95 49.79z"/><path class="cls-10" d="m1499.18 350.51 38.98-129.48 157.93 99.08-196.91 30.4z"/><path class="cls-9" d="m1499.18 350.51 196.91-30.4-47.98 110.61-148.93-80.21z"/><path class="cls-12" d="m1538.16 221.03 134.77 18.72 1.17.16 21.99 80.2-157.93-99.08z"/><path class="cls-9" d="m1620.01 605.61-75.85-125.1 151.93 14.15-76.08 110.95z"/><path style="fill:#3f4053" d="m1544.16 480.51 103.95-49.79 47.98 63.94-151.93-14.15z"/><path class="cls-14" d="m1620.12 605.8-.11-.19 76.08-110.95 67.52 111.1-.04.04h-143.45z"/><path class="cls-7" d="m1696.09 494.66-47.98-63.95 47.98-110.6v174.55z"/><path class="cls-11" d="m1696.09 320.11-21.99-80.2 105.95-79.68h.01l-83.97 159.88z"/><path class="cls-14" d="M1696.09 494.66V320.11l139 74.43-.14.29c-4.83-2.27-138.81 99.83-138.81 99.83"/><path class="cls-6" d="m1763.61 605.76-67.52-111.1 136.45 27.79-68.91 83.34-.02-.03z"/><path class="cls-9" d="m1696.09 320.11 83.97-159.88 139.44 108.5-223.41 51.38z"/><path class="cls-11" d="m1832.54 522.45-136.45-27.79s134-102.1 138.81-99.83a.25.25 0 0 1 .14.24v124.3Z"/><path class="cls-7" d="m1696.09 320.11 223.41-51.38h.25v.14l-84.71 125.67-138.95-74.43z"/><path class="cls-11" d="m1780.06 160.23 139.44-141.5v124.88l-139.44 16.62z"/><path class="cls-15" d="m1780.06 160.23 139.44-16.62V18.73h.25v250h-.25l-139.44-108.5z"/><path class="cls-7" d="m1832.54 522.45 2.5-3.08 84.71-104.32v190.52l-87.21-83.12z"/><path class="cls-14" d="m1834.9 394.83.14-.29 84.71 20.39v.12L1835 519.37V395.06a.24.24 0 0 0-.14-.23"/><path class="cls-6" d="m1835.04 394.54 84.71-125.67v146.06l-84.71-20.39z"/></g></g></g><g style="opacity:.1"><path class="cls-10" d="m730.23 495.37 67.18 110.78-.12.17H676.05l54.18-110.95z"/><path class="cls-7" d="m730.23 495.37-54.18 110.95h-85.23l.02-.19 139.39-110.76z"/><path class="cls-17" d="M730.23 495.37 590.84 606.13l20.78-126.54 118.61 15.78z"/><path class="cls-8" d="m611.62 479.59-20.78 126.54-.08.07-80.84-155.61 101.7 29z"/><path class="cls-7" d="m509.92 450.59 80.84 155.61-.15.12h-59.1l-.34-.39-21.25-155.34z"/><path class="cls-11" d="m509.92 450.59 21.25 155.34h-.11c-5.76-4.22-82.43-64.76-82.43-64.76Z"/><path class="cls-17" d="M531.06 605.93H243.55l205.08-64.76s76.67 60.54 82.43 64.76"/><path class="cls-14" d="m509.92 450.59-61.29 90.58-110.66-53.85 171.95-36.73z"/><path class="cls-10" d="m448.63 541.17-205.08 64.76H243l94.97-118.61 110.66 53.85z"/><path class="cls-15" d="m338 487.32-95 118.61h-.13l-72.07-47.49c10.82-1.15 167.2-71.12 167.2-71.12"/><path class="cls-7" d="M123.76 443.68 338 487.32s-156.34 70-167.17 71.12l-.13-.09h-.42c-1.77-3.25-46.48-114.67-46.48-114.67Z"/><path class="cls-15" d="m337.97 487.32-214.21-43.63 93.83-70.57 1.03.15 119.35 114.05z"/><path class="cls-11" d="M242.87 605.93H1.53l168.84-47.5a1.17 1.17 0 0 0 .43 0ZM198.12 302.1l19.47 71.02-93.83 70.57h-.01l74.37-141.59z"/><path class="cls-9" d="m198.12 302.1-74.37 141.59L.27 347.6l197.85-45.5z"/><path class="cls-12" d="M170.37 558.43 1.53 605.93H.71V569l169.54-10.66a.23.23 0 0 0 .12.06"/><path class="cls-9" d="M170.25 558.38.71 569v36.9H.05V569h.22l123.48-125.3s44.71 111.41 46.48 114.66"/><path class="cls-11" d="M123.75 443.69.27 568.99V458.41l123.48-14.72z"/><path class="cls-15" d="M123.75 443.69.27 458.41v110.58H.05V347.6h.22l123.48 96.09z"/></g></svg>