<svg width="800" height="24" fill="none" xmlns="http://www.w3.org/2000/svg"><g clip-path="url('#clip0')"><path d="M418 21a1 1 0 0 0 0 2v-2Zm722 0H418v2h722v-2Z" fill="#91DC3E"/><path d="M404.219 21.375a1 1 0 1 0 1.562 1.25l-1.562-1.25Zm7.58-7.874.781.625-.781-.625ZM1140 11H414.922v2H1140v-2Zm-728.982 1.877-6.799 8.498 1.562 1.25 6.799-8.5-1.562-1.248ZM414.922 11a5 5 0 0 0-3.904 1.877l1.562 1.249A2.999 2.999 0 0 1 414.922 13v-2Z" fill="#F59B29"/><path d="M0 22h390.078a4 4 0 0 0 3.123-1.501L400 12l6.799-8.499A4 4 0 0 1 409.922 2H1140" stroke="#F860C8" stroke-width="2"/><path d="M395.781 2.625a1 1 0 0 0-1.562-1.25l1.562 1.25Zm-7.58 7.874.781.624-.781-.624ZM0 13h385.078v-2H0v2Zm388.982-1.877 6.799-8.498-1.562-1.25-6.799 8.5 1.562 1.248ZM385.078 13a5 5 0 0 0 3.904-1.877l-1.562-1.249A2.999 2.999 0 0 1 385.078 11v2Z" fill="#91DC3E"/><path d="M382 3a1 1 0 0 0 0-2v2ZM0 3h382V1H0v2Z" fill="#F59B29"/></g><defs><clipPath id="clip0"><path fill="#fff" d="M0 0h800v24H0z"/></clipPath></defs></svg>