<svg width="73" height="28" fill="none" xmlns="http://www.w3.org/2000/svg"><path d="M70.848 11.534h-3.295c-1.02 0-1.988.473-2.605 1.277l-8.929 10.668V13.181c0-.906-.741-1.647-1.647-1.647-.608 0-1.133.33-1.422.813l-6.724 11.544c-.7 1.04-1.75.824-2.06.731-.309-.092-1.328-.494-1.328-1.771v-2.667l6.58-12.316a5.238 5.238 0 0 0-.03-5.242A5.228 5.228 0 0 0 44.824 0c-2.914 0-5.282 2.369-5.282 5.273v17.372c0 1.133-.927 2.06-2.06 2.06a2.066 2.066 0 0 1-2.06-2.06v-2.883c0-4.542-3.697-8.239-8.238-8.239a8.186 8.186 0 0 0-6.467 3.13l-.02.021-3.646 4.573a6.077 6.077 0 0 0-.608-1.102l-4.067-5.921a1.637 1.637 0 0 0-1.288-.71 1.669 1.669 0 0 0-1.349.607L.37 23.654a1.65 1.65 0 0 0 .236 2.317 1.65 1.65 0 0 0 2.317-.236l7.981-9.825 2.822 4.11c.638.926.71 2.08.185 3.078-.082.165-.185.32-.298.464l-.01.01s0 .01-.011.01a2.935 2.935 0 0 1-2.327 1.112h-2.72c-.905 0-1.647.742-1.647 1.648 0 .906.742 1.648 1.648 1.648h2.729a6.261 6.261 0 0 0 4.902-2.358l.01-.01 3.028-3.8c.916 3.542 4.15 6.168 7.97 6.168h1.648c.906 0 1.648-.742 1.648-1.648 0-.906-.742-1.648-1.648-1.648h-1.648a4.944 4.944 0 0 1-4.943-4.943c0-1.318.515-2.564 1.452-3.49a4.9 4.9 0 0 1 3.491-1.453 4.944 4.944 0 0 1 4.943 4.943v2.884c0 2.955 2.4 5.355 5.355 5.355 1.4 0 2.678-.546 3.635-1.421a5.255 5.255 0 0 0 2.101 1.204 5.31 5.31 0 0 0 1.524.227c1.689 0 3.264-.834 4.253-2.348.02-.02.031-.051.041-.072l3.677-6.313v6.138c0 1.102.669 2.06 1.71 2.43.298.103.596.155.895.155.752 0 1.473-.33 1.977-.927L67.491 14.88c.02-.021.041-.042.052-.073h3.295c.906 0 1.648-.741 1.648-1.647s-.732-1.627-1.638-1.627Zm-28.01-6.261a1.98 1.98 0 0 1 1.987-1.978c1.03 0 1.545.69 1.72.989.175.299.515 1.081.01 1.977-.01.01-.01.031-.02.041l-3.697 6.89v-7.92Z" fill="#fff"/></svg>