<svg width="73" height="28" viewBox="0 0 73 28" fill="none" xmlns="http://www.w3.org/2000/svg">
<path d="M70.8482 11.5337H67.5529C66.5334 11.5337 65.5654 12.0074 64.9476 12.8106L56.0193 23.4792V13.1813C56.0193 12.2751 55.2778 11.5337 54.3716 11.5337C53.764 11.5337 53.2388 11.8632 52.9505 12.3472L46.226 23.8911C45.5257 24.9312 44.4753 24.715 44.1664 24.6223C43.8574 24.5296 42.838 24.128 42.838 22.851C42.838 22.1714 42.838 21.2549 42.838 20.1839L49.4183 7.8676C50.3451 6.21993 50.3348 4.26333 49.3874 2.62597C48.4297 0.978301 46.7203 0 44.8254 0C41.9111 0 39.5426 2.36852 39.5426 5.27253C39.5426 10.3082 39.5426 19.1747 39.5426 22.6451C39.5426 23.7779 38.6158 24.7047 37.483 24.7047C36.3503 24.7047 35.4235 23.7779 35.4235 22.6451V19.7617C35.4235 15.2203 31.7265 11.5234 27.1851 11.5234C24.9814 11.5234 22.9115 12.3781 21.3565 13.9331C21.13 14.1596 20.9137 14.4068 20.7181 14.6539C20.7078 14.6642 20.7078 14.6642 20.6975 14.6745L17.052 19.2468C16.8872 18.8658 16.6916 18.495 16.4444 18.1449L12.3768 12.2236C12.0781 11.7911 11.6044 11.5337 11.0895 11.5131C10.5746 11.4925 10.07 11.719 9.74049 12.1206L0.369394 23.6543C-0.207289 24.3648 -0.0940117 25.3946 0.606246 25.9713C1.3168 26.548 2.34659 26.4347 2.92327 25.7345L10.9042 15.9103L13.7258 20.0191C14.3642 20.9459 14.4363 22.0993 13.9111 23.0982C13.8288 23.263 13.7258 23.4174 13.6125 23.5616L13.6022 23.5719C13.6022 23.5719 13.6022 23.5822 13.5919 23.5822C13.0358 24.2825 12.2017 24.6944 11.2646 24.6944H8.54593C7.63971 24.6944 6.89827 25.4358 6.89827 26.342C6.89827 27.2483 7.63971 27.9897 8.54593 27.9897H11.2749C13.2109 27.9897 15.0027 27.1041 16.1767 25.6315C16.1767 25.6315 16.1767 25.6315 16.187 25.6212L19.2146 21.8213C20.1311 25.3637 23.3646 27.9897 27.1851 27.9897H28.8328C29.739 27.9897 30.4805 27.2483 30.4805 26.342C30.4805 25.4358 29.739 24.6944 28.8328 24.6944H27.1851C24.4562 24.6944 22.2421 22.4803 22.2421 19.7514C22.2421 18.4332 22.757 17.1872 23.6941 16.2604C24.6313 15.3233 25.867 14.8084 27.1851 14.8084C29.9141 14.8084 32.1281 17.0224 32.1281 19.7514V22.6348C32.1281 25.5903 34.5275 27.9897 37.483 27.9897C38.8836 27.9897 40.1605 27.4439 41.1182 26.5686C41.6949 27.1144 42.4054 27.5263 43.219 27.7734C43.7339 27.9279 44.2488 28 44.7431 28C46.4319 28 48.0075 27.1659 48.9961 25.6521C49.0167 25.6315 49.027 25.6006 49.0373 25.58L52.7136 19.2674V25.4049C52.7136 26.5068 53.383 27.4645 54.4231 27.8352C54.7217 27.9382 55.0204 27.9897 55.319 27.9897C56.0708 27.9897 56.7916 27.6602 57.2962 27.0629L67.4911 14.8805C67.5117 14.8599 67.5323 14.8393 67.5426 14.8084H70.838C71.7442 14.8084 72.4856 14.0669 72.4856 13.1607C72.4856 12.2545 71.7545 11.5337 70.8482 11.5337ZM42.838 5.27253C42.838 4.18095 43.7236 3.29533 44.8254 3.29533C45.8552 3.29533 46.3701 3.98529 46.5452 4.28393C46.7203 4.58257 47.0601 5.36521 46.5555 6.26113C46.5452 6.27142 46.5452 6.29202 46.5349 6.30232L42.838 13.1916C42.838 10.3391 42.838 7.44538 42.838 5.27253Z" fill="white"/>
</svg>
